<?xml version="1.0" encoding="utf-8"?>
<svg viewBox="0 0 500 500" xmlns="http://www.w3.org/2000/svg">
  <g transform="matrix(4.677159, 0, 0, 4.511451, -826.567993, -98.299782)" style="">
    <g>
      <path d="M181.5,95.7c-0.15,0-0.28-0.09-0.35-0.23c-2.61-6.16-3.94-12.71-3.94-19.46c0-27.52,22.39-49.92,49.92-49.92 c26.83,0,48.73,20.98,49.87,47.76c0.01,0.21-0.15,0.38-0.36,0.39c-0.21,0.01-0.38-0.15-0.39-0.36 c-1.12-26.38-22.7-47.04-49.12-47.04c-27.11,0-49.17,22.06-49.17,49.17c0,6.65,1.3,13.1,3.88,19.17c0.08,0.19-0.01,0.41-0.2,0.49 C181.6,95.69,181.55,95.7,181.5,95.7z"/>
      <path d="M227.14,125.93c-13.42,0-26.02-5.25-35.47-14.79c-0.15-0.15-0.14-0.38,0-0.53c0.15-0.15,0.38-0.14,0.53,0 c9.3,9.4,21.71,14.57,34.93,14.57c19.18,0,36.73-11.27,44.72-28.71c0.09-0.19,0.31-0.27,0.5-0.18c0.19,0.09,0.27,0.31,0.18,0.5 C264.43,114.49,246.61,125.93,227.14,125.93z"/>
    </g>
    <g>
      <path d="M195.03,50.73c0.02,0.04-0.01,0.08-0.06,0.1l-0.14,0.02l-0.43,0.25c-0.69-0.39-1.24-0.55-1.65-0.49 c-0.57,0.08-0.85,0.23-0.87,0.43c-0.11,0.05-0.26,0.16-0.49,0.35l-0.02,0c-0.06,0.05-0.12,0.08-0.17,0.1 c0.12,0.24,0.38,0.42,0.79,0.54c0.41,0.12,1.14,0.31,2.23,0.56c1.74,0.4,2.7,1.14,2.87,2.23c0.05,0.24,0.06,0.49,0.06,0.8 c0,0.27-0.05,0.57-0.15,0.88c-0.4,0.75-0.98,1.32-1.76,1.75v0.01c-0.44,0.23-1.08,0.42-1.94,0.54l-0.26,0.02 c-0.02,0.29-0.17,0.45-0.43,0.49c-0.15,0.02-0.35,0.01-0.58-0.05c-1.51-0.39-2.55-0.99-3.13-1.78l-0.06,0.02 c-0.06-0.01-0.09-0.03-0.11-0.11l-0.03-0.15c-0.02-0.07-0.11-0.26-0.29-0.55c-0.15-0.3-0.26-0.56-0.29-0.75l-0.05-0.31 c0.56,0.02,0.85,0.06,0.85,0.13l0.47-0.07l0.34-0.22c0.29,0.1,0.46,0.21,0.47,0.36c0.03,0.15,0.08,0.23,0.14,0.24 c-0.08-0.17-0.12-0.32-0.14-0.45l-0.03-0.16v-0.03c0-0.06,0.05-0.1,0.12-0.11l0.15-0.02c0.17-0.02,0.31,0,0.44,0.07l-0.03,0.36 c0.05,0.16,0.08,0.25,0.08,0.26c0.08,0.22,0.26,0.37,0.58,0.47c0.31,0.09,0.52,0.14,0.64,0.12c0.12-0.02,0.2-0.04,0.24-0.1 c0.08,0.03,0.23,0.06,0.46,0.07c0.03,0.01,0.05,0.02,0.05,0.05s-0.02,0.06-0.05,0.08c0,0.03,0.09,0.03,0.29,0l0.11-0.02 c0.05,0.01,0.08,0,0.12,0c0.05-0.02,0.08-0.07,0.08-0.12l-0.03-0.16c0-0.01,0-0.05-0.02-0.06c0-0.2,0.15-0.39,0.46-0.59 c0.29-0.21,0.44-0.35,0.44-0.43c0-0.2-0.5-0.39-1.5-0.55c-0.99-0.19-1.77-0.42-2.31-0.69c-0.02,0.02-0.06,0.02-0.12,0.03 c-0.08,0.01-0.2-0.06-0.38-0.25c-0.18-0.16-0.31-0.26-0.37-0.3c-0.67-0.54-1.05-1.16-1.16-1.85c-0.05-0.28-0.08-0.6-0.08-0.95 c0-0.34,0.06-0.71,0.17-1.14c0.03,0.03,0.15,0.08,0.35,0.18c0.21,0.09,0.34,0.21,0.38,0.34c0.05-0.04,0.08-0.06,0.09-0.06 c0.02,0,0.02,0,0.02,0.01l-0.03,0.05c0.18-0.1,0.21-0.23,0.08-0.35c-0.06-0.05-0.09-0.14-0.08-0.26c0-0.4,0.43-0.76,1.3-1.09 c0.41-0.15,0.95-0.27,1.59-0.37c0.64-0.09,1.4-0.01,2.31,0.25c0.03-0.03,0.06-0.05,0.09-0.06c0.05-0.01,0.09,0.03,0.18,0.1 c0.06,0.07,0.14,0.1,0.18,0.11c1.07,0.41,1.73,0.97,1.97,1.68c-0.06-0.01-0.23,0.02-0.47,0.05c-0.28,0.04-0.43-0.01-0.49-0.17 c-0.29,0.18-0.44,0.32-0.49,0.41s-0.08,0.15-0.12,0.19c-0.32-0.03-0.52-0.08-0.64-0.15c-0.09-0.09-0.17-0.13-0.21-0.12l-0.06,0.01 C194.86,50.56,195.03,50.69,195.03,50.73z M190.42,50.94l0.02,0.01v0.21c0.01,0.01,0.01,0.04,0.03,0.09 c-0.02-0.04-0.02-0.13-0.02-0.26c0-0.12,0.03-0.31,0.12-0.58c0.06-0.27,0.15-0.42,0.23-0.46c-0.21-0.27-0.46-0.41-0.73-0.38 l-0.02,0.02l0.26,0.33v0.06c0,0.03-0.03,0.07-0.09,0.12c0.14,0.21,0.2,0.46,0.2,0.73V50.94z M190.51,51.57 c0.03,0.13,0.09,0.2,0.2,0.23c-0.11-0.18-0.18-0.34-0.23-0.49C190.49,51.36,190.51,51.45,190.51,51.57z M190.66,56.53l-0.02,0 c-0.02-0.01-0.03-0.03-0.06-0.08c-0.03-0.03-0.05-0.05-0.06-0.05c0.06,0.25,0.34,0.49,0.84,0.67v-0.02 C191.07,56.9,190.84,56.72,190.66,56.53z M190.69,51.84v0.02c0.02-0.02,0.03-0.04,0.06-0.05L190.69,51.84z M191.73,52.59 c0.2,0.14,0.75,0.29,1.65,0.46c0.9,0.18,1.54,0.39,1.95,0.63c-0.43-0.26-1.1-0.5-1.98-0.72c-0.92-0.2-1.45-0.35-1.63-0.44 c-0.18-0.1-0.27-0.14-0.29-0.14L191.73,52.59z M195.65,56.98c0.5-0.52,0.75-1.02,0.75-1.54c-0.02,0.74-0.49,1.38-1.42,1.95 C195.18,57.28,195.41,57.15,195.65,56.98z"/>
      <path d="M203.29,55.05c-0.05-0.07-0.08-0.13-0.08-0.14v-0.02c-0.02-0.07-0.02-0.13,0-0.21c0.02-0.08-0.05-0.02-0.15,0.13 c0.29-1.14,0.44-1.97,0.44-2.48l-0.06-1.9l0.02-0.37c-0.08-0.03-0.11-0.06-0.12-0.09l0.12-0.32c0-0.57-0.08-1.06-0.23-1.48 c0.35-0.13,0.6-0.19,0.7-0.21c0.11-0.02,0.17-0.01,0.17,0.02v0.11c0.05-0.02,0.12-0.05,0.23-0.08c0.09-0.03,0.17-0.06,0.21-0.08 c0.03-0.02,0.08-0.09,0.14-0.19c0.06-0.12,0.11-0.18,0.14-0.22c0.32,0.08,0.49,0.48,0.53,1.21c0.02,0.1,0.03,0.19,0.08,0.23v-0.24 l-0.18-1.49c0-0.14,0.05-0.22,0.12-0.25c0.31-0.03,0.49-0.01,0.56,0.07c0.08,0.25,0.11,0.58,0.11,0.96v0.6l0.02,0.11l-0.09,1.45 l0.14,2.74l-0.02,0.43l-0.05,0.68c0,0.08,0.02,0.14,0.03,0.21c-0.23,0.78-0.43,1.33-0.56,1.61c-0.14,0.28-0.38,0.56-0.7,0.81 c-0.32,0.24-0.6,0.47-0.81,0.65c-0.21,0.18-0.58,0.31-1.11,0.39l-0.06,0.01c-0.35,0.04-0.66-0.07-0.92-0.33l-0.02,0 c-0.08-0.03-0.15-0.05-0.18-0.05c-0.06,0.01-0.11,0.08-0.15,0.19c-0.05,0.11-0.2,0.2-0.43,0.23c-0.23,0.03-0.61-0.05-1.13-0.23 c-0.96-0.44-1.59-1.22-1.83-2.33c-0.27-1.11-0.4-2.39-0.4-3.81v-0.6c-0.06-0.04-0.09-0.08-0.11-0.12l0.12-0.46v-0.06 c0.02-0.2,0.02-0.57,0.03-1.15c0.02-0.55,0.03-1.03,0.06-1.4c0.53,0.06,0.81,0.16,0.81,0.31c0,0.03,0,0.06-0.02,0.09l0.46-0.02 l0.38-0.41c0.2,0.2,0.29,0.4,0.29,0.6c0,0.2,0,0.34-0.01,0.42v0.11l-0.06,0.57c0.02,0.1,0.03,0.18,0.06,0.22 c0.08-0.99,0.12-1.61,0.15-1.84c0.02-0.25,0.08-0.38,0.18-0.41c0.12-0.02,0.24,0.01,0.37,0.11c0.11,0.08,0.17,0.14,0.18,0.17 c-0.26,2.13-0.4,3.46-0.4,4c0,0.53,0.09,1.19,0.27,1.98c0.18,0.78,0.34,1.17,0.47,1.15l1.39,0.62l0.03,0 c0.21-0.11,0.4-0.18,0.52-0.2C203.1,55.05,203.21,55.05,203.29,55.05z M199.97,54.32c-0.18-1.03-0.27-2.05-0.27-3.08v-0.11 l0.02-0.4v-0.18c-0.05,0.27-0.08,0.67-0.08,1.22C199.64,52.34,199.75,53.18,199.97,54.32z M201.44,55.87l-0.53-0.33 c-0.35-0.15-0.6-0.34-0.73-0.58C200.34,55.31,200.75,55.62,201.44,55.87z M202.26,56.72c0.02,0.08,0.05,0.16,0.11,0.23 C202.33,56.85,202.28,56.78,202.26,56.72z M202.62,55.94c-0.05,0.04-0.09,0.06-0.11,0.08c-0.02,0.02-0.02,0.02,0.02,0.01 c0.03-0.02,0.08-0.01,0.15,0.02c-0.08,0.1-0.08,0.18,0,0.21c0.05-0.07,0.12-0.11,0.23-0.12l0.41-0.01 c0.05-0.02,0.06-0.05,0.06-0.12c-0.02-0.2-0.15-0.28-0.4-0.25C202.75,55.8,202.63,55.86,202.62,55.94z M203.1,57.09 c0.34-0.2,0.5-0.33,0.52-0.38c0-0.05-0.03-0.09-0.09-0.09c-0.08,0-0.14-0.04-0.18-0.11c-0.05-0.07-0.09-0.09-0.17-0.1l-0.02,0 c0.02,0.12,0.02,0.24,0.02,0.38C203.18,56.93,203.15,57.02,203.1,57.09z M204.75,55.43l0.35-0.63c0.06-0.28,0.12-0.57,0.17-0.85 C205.17,54.47,205,54.97,204.75,55.43z M205.35,50.58l0.03,1.74v0.47c0.01-0.26,0.03-0.65,0.03-1.15l-0.02-1.37v-0.44 c-0.03,0.11-0.05,0.25-0.05,0.42V50.58z"/>
      <path d="M209.96,56.31c-0.01,0-0.06,0.04-0.09,0.09c-0.06,0.05-0.12,0.09-0.23,0.12c-0.11,0.03-0.15,0.1-0.15,0.21 c0,0.05,0.01,0.1,0.03,0.16c0.11-0.08,0.21-0.12,0.34-0.14c0.11-0.02,0.23,0.04,0.34,0.18c-0.17,0.02-0.41,0.12-0.72,0.27 c-0.2-0.05-0.4-0.05-0.6-0.02l-0.2,0.03c-0.08-0.04-0.12-0.18-0.12-0.46l0.06-0.7c0-0.05-0.06-0.08-0.18-0.06 c-0.11-0.02-0.23-0.03-0.34-0.1c-0.12-0.04-0.18-0.29-0.18-0.71v-0.11c-0.02-0.3-0.03-1.23-0.06-2.77c0-1.54-0.02-2.47-0.03-2.79 c-0.06-0.02-0.09-0.06-0.11-0.12l0.06-0.38c-0.01-0.53-0.09-0.8-0.24-0.8l-0.55,0.25V48.4c0-0.6,0.47-1.18,1.42-1.76 c0.31-0.18,0.49-0.31,0.53-0.38c-0.93,0.47-1.6,0.98-1.97,1.54c-0.4,0.56-0.63,0.84-0.7,0.87c-0.15,0.02-0.23-0.15-0.23-0.52 c0-0.14,0-0.21,0.02-0.23c1.02-1.55,2.56-2.48,4.63-2.78c1.45-0.21,2.49-0.09,3.15,0.34c0.66,0.45,1.1,0.86,1.33,1.27 c0.23,0.39,0.35,0.94,0.35,1.63c-0.02,1.96-0.78,3.44-2.31,4.47l1.37,1.48c0.09-0.06,0.14-0.07,0.14-0.02l-0.02,0.12 c0,0.02,0.21,0.32,0.64,0.9c-0.38,0.24-0.61,0.36-0.69,0.37l-0.15,0.02c-0.02,0-0.08,0.04-0.17,0.12 c-0.11,0.06-0.17,0.12-0.2,0.12c-0.03,0.03-0.08,0.09-0.12,0.17c-0.05,0.1-0.09,0.17-0.12,0.2l-0.14,0.04 c-0.18,0.01-0.32-0.06-0.43-0.2c-0.09-0.17-0.17-0.25-0.23-0.26c0.28,0.43,0.41,0.69,0.41,0.75c0,0.09-0.08,0.16-0.24,0.25 c-0.17,0.09-0.26,0.13-0.31,0.12l-0.08,0.01c-0.03-0.07-0.06-0.17-0.11-0.31c-0.05-0.13-0.09-0.28-0.18-0.4 c-0.06-0.13-0.18-0.37-0.34-0.7c-0.17-0.33-0.66-0.74-1.47-1.25c-0.06,0.9-0.09,1.34-0.09,1.36l0.03,0.44 c0,0.02-0.02,0.09-0.05,0.24l-0.46,0.34L209.96,56.31z M209.64,48.02c0.02,0.18,0.05,0.3,0.09,0.34L209.69,48l-0.02,0v0.01 L209.64,48.02z M209.78,51.6l0.02,0.01l0.02-0.77l-0.03-1.46c0-0.08,0-0.15-0.02-0.23c-0.02,0-0.02,0.17-0.02,0.54 C209.75,50.03,209.76,50.67,209.78,51.6z M209.82,52.61c0,0.17,0,0.32,0.02,0.47l0.05-0.01 C209.87,52.97,209.84,52.82,209.82,52.61z M209.88,54.15c0.03-0.05,0.05-0.1,0.05-0.14c0-0.05-0.02-0.1-0.06-0.16L209.88,54.15z M212.89,48.26v-0.01c-0.35-0.48-0.66-0.71-0.92-0.69c-0.29-0.06-0.55-0.07-0.78-0.04c-0.23,0.03-0.43,0.08-0.56,0.11 c-0.05,0.08-0.09,0.14-0.15,0.14c-0.05,0.01-0.09,0.01-0.12,0v0.18c0,1.41,0.05,2.62,0.14,3.63c0.17-0.01,0.27-0.01,0.35-0.02 l0.11-0.02c0.17,0.02,0.24-0.02,0.26-0.13l-0.02-0.15c0-0.21,0.17-0.44,0.5-0.67c0.32-0.24,0.52-0.38,0.57-0.43 c0.43-0.44,0.64-1.01,0.66-1.71c0-0.14,0-0.2-0.02-0.2L212.89,48.26z M210.54,45.7c0.05,0.01,0.09,0,0.14,0l0.31-0.03l0.26-0.02 l0.05-0.01c1.01-0.07,1.94,0.24,2.78,0.93c0.23,0.18,0.4,0.4,0.52,0.64c-0.18-0.39-0.49-0.72-0.92-1.01 c-0.75-0.53-1.74-0.71-2.96-0.53C210.66,45.67,210.62,45.68,210.54,45.7z M212.94,55.73l-0.21-0.46l-1.22-1.29l1.22,1.35l0.02,0 L212.94,55.73z M212.66,52.19l0.02,0.01c0.81-0.38,1.4-1.1,1.79-2.15C214.14,50.91,213.53,51.62,212.66,52.19z M214.82,48.23 c0-0.26-0.05-0.51-0.12-0.75C214.77,47.7,214.8,47.96,214.82,48.23z"/>
      <path d="M223.92,44.41c0.14-0.02,0.24-0.14,0.34-0.38c0.09-0.23,0.23-0.35,0.43-0.38l0.03,0l0.01,0.01 c0.23-0.02,0.34,0.1,0.34,0.36s-0.14,0.65-0.4,1.14l-0.11,0.23c-0.05,0.05-0.06,0.1-0.06,0.15c0,0.05,0.06,0.1,0.15,0.15 c0.12,0.06,0.17,0.17,0.17,0.36l-0.15,0.68v0.01c-0.23,0.66-0.96,2.49-2.2,5.48c0.03,0.03,0.05,0.07,0.05,0.1 c0,0.06-0.05,0.13-0.12,0.22c-0.09,0.09-0.35,0.84-0.79,2.24c-0.03-0.01-0.15-0.07-0.37-0.16c-0.21-0.08-0.32-0.15-0.32-0.23 c0-0.06,0.02-0.11,0.03-0.14l-0.43-0.11l-0.44,0.25c-0.09-0.14-0.14-0.29-0.14-0.44l0.37-1.24v-0.03 c-0.02,0.02-0.12,0.26-0.32,0.75v0.08c-0.02,0.12-0.05,0.22-0.11,0.28c-0.06,0.05-0.12,0.2-0.18,0.42 c-0.06,0.21-0.14,0.33-0.23,0.34c-0.09,0.01-0.18-0.03-0.27-0.16c-0.09-0.12-0.14-0.22-0.14-0.32s0.03-0.2,0.09-0.32l-0.34-1.1 l-0.21,0.06c-0.27,0.04-0.47-0.15-0.6-0.56c-0.11-0.4-0.31-0.93-0.58-1.58c-0.29-0.65-0.61-1.65-0.98-3.02 c-0.08,0-0.12-0.03-0.14-0.09l0.05-0.24c0-0.05-0.09-0.28-0.29-0.68l-0.05-0.01c-0.27-0.25-0.47-0.6-0.58-1.06 c0.14,0,0.26-0.01,0.34-0.02l0.11-0.02c0.29-0.04,0.47,0.02,0.53,0.18c0.28-0.18,0.43-0.34,0.47-0.44 c0.05-0.13,0.09-0.21,0.15-0.28c0.38,0.07,0.61,0.19,0.69,0.34c0.09,0.15,0.15,0.31,0.21,0.46c0.03,0.13,0.09,0.22,0.15,0.25 c-0.11-0.35-0.24-0.64-0.4-0.86c-0.14-0.21-0.21-0.33-0.21-0.37c0-0.05,0-0.06,0.02-0.06l0.66-0.17c0.35,0.65,0.61,1.42,0.79,2.31 c0.2,0.89,0.47,1.63,0.84,2.23c0.37,0.59,0.64,1.07,0.81,1.44c0.78-2.02,1.16-3.12,1.16-3.28c0-0.17,0-0.26-0.02-0.27l0.44-1.3 v-0.02c0.03-0.08,0.12-0.23,0.27-0.48c0.15-0.25,0.29-0.52,0.41-0.82c0.12-0.31,0.26-0.47,0.43-0.49l0.03,0 c0.2-0.01,0.31,0.03,0.31,0.12l-0.09,0.55c0,0.02,0.02,0.03,0.03,0.04l0.23-0.09L223.92,44.41z M218.31,46.75l0.09,0.69 c0.06,0.46,0.31,1.15,0.75,2.06c-0.21-0.47-0.44-1.25-0.7-2.3l-0.02,0L218.31,46.75z M219.9,50.99c-0.02-0.04-0.18-0.37-0.5-0.98 c0.02,0.06,0.17,0.45,0.44,1.19l0.14,0.38L219.9,50.99z M220.85,51.25c0,0.02,0,0.02,0.02,0.04c0,0,0,0.01,0,0.03 c0.17-0.36,0.57-1.35,1.22-2.97L220.85,51.25z M222.65,46.8c0.14-0.42,0.26-0.74,0.35-0.97l-0.32,0.64l-0.34,1.21 C222.4,47.51,222.51,47.22,222.65,46.8z"/>
      <path d="M227.99,43.05c0.08-0.01,0.18,0.05,0.29,0.17l0.02,0.26l-0.02,0.81l0.03,0.71l-0.02,1.15c0,0.23,0.05,0.82,0.12,1.8 c0.08,0.98,0.12,1.56,0.15,1.73c0,0.2,0.05,0.31,0.09,0.38c-0.02,0.14-0.02,0.29-0.02,0.48c0,0.18,0,0.4,0.02,0.64v0.06l0.02,0 l-0.14,1.01c-0.05,0.72-0.18,1.11-0.41,1.16c-0.18,0.03-0.29-0.1-0.31-0.35c-0.02-0.27-0.05-0.41-0.06-0.4l-0.34,0.2 c-0.11,0.02-0.17,0.15-0.2,0.41c-0.05,0.25-0.15,0.39-0.35,0.43c-0.37,0.05-0.55-0.12-0.56-0.53l0.17-0.99 c0-0.05-0.06-0.05-0.17-0.05c-0.34,0.02-0.5-0.29-0.5-0.92l0.02-2.31c0-0.93-0.02-1.85-0.05-2.73c-0.08,0-0.11-0.04-0.12-0.09 l0.09-0.32l-0.26-1.92c0.56-0.02,0.86,0,0.86,0.04v0.09l0.47-0.11c0.03-0.02,0.08-0.07,0.15-0.19c0.08-0.1,0.12-0.17,0.17-0.21 c0.26,0.13,0.4,0.31,0.43,0.49c0,0.21,0.03,0.41,0.03,0.61c0.03,0.21,0.05,0.33,0.09,0.37l-0.12-1.65 c0.02-0.11,0.11-0.18,0.27-0.21L227.99,43.05z M227.73,45.82c-0.02,0.02-0.03,0.16-0.03,0.45c0,0.27,0.02,0.75,0.03,1.4 c0.02,0.65,0.03,1.11,0.03,1.34l0.02-1.16l-0.03-1.65v-0.15C227.75,45.99,227.75,45.91,227.73,45.82z M227.86,50.57 c-0.03-0.29-0.05-0.42-0.06-0.42c-0.02,0-0.02,0.06-0.02,0.2v0.32c0,0.08,0,0.2,0,0.35c-0.02,0.17-0.02,0.28-0.02,0.35l0.09-0.61 V50.57z"/>
      <path d="M237.31,42.46c0.14-0.02,0.24-0.14,0.34-0.38c0.09-0.23,0.23-0.35,0.43-0.38l0.03,0l0.01,0.01 c0.23-0.02,0.34,0.1,0.34,0.36c0,0.26-0.14,0.65-0.4,1.14l-0.11,0.23c-0.05,0.05-0.06,0.1-0.06,0.15c0,0.05,0.06,0.1,0.15,0.15 c0.12,0.06,0.17,0.17,0.17,0.36l-0.15,0.68v0.01c-0.23,0.66-0.96,2.49-2.2,5.48c0.03,0.03,0.05,0.07,0.05,0.1 c0,0.06-0.05,0.13-0.12,0.22c-0.09,0.09-0.35,0.84-0.79,2.24c-0.03-0.01-0.15-0.07-0.37-0.16c-0.21-0.08-0.32-0.15-0.32-0.23 c0-0.06,0.02-0.11,0.03-0.14l-0.43-0.11l-0.44,0.25c-0.09-0.14-0.14-0.29-0.14-0.44l0.37-1.24v-0.03 c-0.01,0.02-0.12,0.26-0.32,0.75v0.08c-0.02,0.12-0.05,0.22-0.11,0.28c-0.06,0.05-0.12,0.2-0.18,0.42 c-0.06,0.21-0.14,0.33-0.23,0.34c-0.09,0.01-0.18-0.04-0.27-0.16c-0.09-0.12-0.14-0.22-0.14-0.32c0-0.09,0.03-0.2,0.09-0.32 l-0.34-1.1l-0.21,0.06c-0.27,0.04-0.47-0.15-0.6-0.56c-0.11-0.4-0.31-0.93-0.58-1.58c-0.29-0.65-0.61-1.65-0.98-3.02 c-0.08,0-0.12-0.03-0.14-0.09l0.05-0.24c0-0.05-0.09-0.28-0.29-0.68l-0.05-0.01c-0.27-0.25-0.47-0.6-0.58-1.06 c0.14,0,0.26-0.01,0.34-0.02l0.11-0.02c0.29-0.04,0.47,0.02,0.53,0.18c0.27-0.18,0.43-0.34,0.47-0.44 c0.05-0.13,0.09-0.21,0.15-0.28c0.38,0.07,0.61,0.19,0.69,0.34c0.09,0.15,0.15,0.31,0.21,0.46c0.03,0.13,0.09,0.22,0.15,0.25 c-0.11-0.35-0.24-0.64-0.4-0.86c-0.14-0.21-0.21-0.33-0.21-0.37c0-0.05,0-0.06,0.02-0.06l0.66-0.17c0.35,0.65,0.61,1.42,0.79,2.31 c0.2,0.89,0.47,1.63,0.84,2.23c0.37,0.59,0.64,1.07,0.81,1.44c0.78-2.02,1.16-3.12,1.16-3.28c0-0.17,0-0.26-0.02-0.27l0.44-1.3 v-0.02c0.03-0.08,0.12-0.23,0.27-0.48c0.15-0.25,0.29-0.52,0.41-0.82c0.12-0.31,0.26-0.47,0.43-0.49l0.03,0 c0.2-0.01,0.31,0.03,0.31,0.12l-0.09,0.55c0,0.02,0.02,0.03,0.03,0.04l0.23-0.09L237.31,42.46z M231.7,44.8l0.09,0.69 c0.06,0.46,0.31,1.15,0.75,2.06c-0.21-0.47-0.44-1.25-0.7-2.3l-0.02,0L231.7,44.8z M233.29,49.05c-0.02-0.04-0.18-0.37-0.5-0.98 c0.02,0.06,0.17,0.45,0.44,1.19l0.14,0.38L233.29,49.05z M234.24,49.31c0,0.02,0,0.02,0.01,0.04c0,0,0,0.01,0,0.03 c0.17-0.36,0.56-1.35,1.22-2.97L234.24,49.31z M236.04,44.86c0.14-0.42,0.26-0.74,0.35-0.97l-0.32,0.64l-0.34,1.21 C235.8,45.57,235.9,45.28,236.04,44.86z"/>
      <path d="M241.83,51.92l-0.08,0.03c-0.35,0.05-0.96-0.3-1.8-1.05c-0.84-0.75-1.27-1.91-1.27-3.44c0-1.56,0.69-3.08,2.06-4.58 c0-0.02,0-0.05,0-0.12c-0.01-0.06,0.08-0.15,0.27-0.27c0.18-0.12,0.38-0.28,0.6-0.48c0.75-0.72,1.71-1.29,2.87-1.69v0.43 c-0.02,0.32-0.12,0.51-0.32,0.55c0.02,0.04,0.03,0.12,0.06,0.22c0.01,0.09,0.03,0.16,0.05,0.21c0.02,0.01,0.09,0.03,0.23,0.09 c0.14,0.04,0.23,0.07,0.27,0.1c-0.05,0.07-0.09,0.14-0.17,0.22c0.02,0.01,0.06,0.02,0.12,0.03c0.06,0.01,0.14,0.03,0.2,0.08 c0.09,0.02,0.15-0.04,0.21-0.18c0.05-0.16,0.23-0.26,0.52-0.3c0.3-0.04,0.72,0.06,1.24,0.31c1.02,0.63,1.54,1.78,1.54,3.47 c0,1.68-0.55,3.12-1.65,4.32c0.02,0.1-0.06,0.21-0.2,0.3c-0.14,0.1-0.46,0.34-0.93,0.71c-0.47,0.37-0.75,0.57-0.82,0.58 l-0.11,0.02v0.02l-0.02,0c-0.26,0.24-0.52,0.37-0.79,0.41l-0.87,0.13l0.03-0.1l-0.9-0.27c-0.03,0-0.08,0.04-0.12,0.12 c-0.05,0.08-0.12,0.12-0.2,0.14L241.83,51.92z M240.62,47.88c-0.02-0.2-0.03-0.35-0.03-0.45c0.02-0.92,0.37-1.86,1.08-2.82 l-0.02,0c0.12-0.16,0.21-0.28,0.29-0.36l0.12-0.16c-0.99,0.95-1.5,2.03-1.5,3.23C240.58,47.52,240.59,47.7,240.62,47.88z M241.67,49.53c-0.37-0.25-0.64-0.58-0.84-0.96c0.24,0.53,0.69,1.02,1.34,1.48L241.67,49.53z M244.04,49.02 c1.21-0.65,1.82-1.59,1.83-2.83c0-0.55-0.06-0.92-0.18-1.12c-0.12-0.2-0.23-0.29-0.31-0.29c-0.05-0.1-0.17-0.17-0.37-0.22v0.02 l-1.28-0.35c0.05-0.04,0.06-0.07,0.08-0.1l-0.27-0.31c0-0.15,0.08-0.26,0.24-0.33l0.02,0c0.08-0.03,0.11-0.08,0.08-0.12 c-0.06,0.02-0.12,0.06-0.18,0.12c-1.6,1.13-2.4,2.35-2.41,3.65c0,0.54,0.08,0.89,0.23,1.08c0.17,0.17,0.29,0.28,0.38,0.3 c0.14,0.22,0.43,0.49,0.87,0.79l0.02,0l0.2,0.17c0.08-0.16,0.14-0.25,0.15-0.27l0.41-0.06C243.77,49.1,243.93,49.06,244.04,49.02z M242.99,43.28c0.06-0.06,0.12-0.11,0.2-0.15C243.08,43.16,243.02,43.21,242.99,43.28z M244.01,49.74c0.06-0.04,0.2-0.1,0.37-0.18 c0.17-0.08,0.27-0.18,0.31-0.27c-0.32,0.23-0.63,0.4-0.92,0.48C243.84,49.8,243.92,49.78,244.01,49.74z M244.96,51.28 c-0.03,0.02-0.05,0.04-0.06,0.05C244.93,51.32,244.94,51.3,244.96,51.28z M245.35,43.68c0.02,0.01,0.17,0.1,0.43,0.26l-0.01,0 c0.26,0.11,0.47,0.36,0.61,0.74C246.21,44.14,245.86,43.81,245.35,43.68z M246.51,45.5v0.18c-0.02,1.15-0.37,2.13-1.07,2.94 c0.72-0.58,1.07-1.5,1.08-2.77V45.5L246.51,45.5z"/>
      <path d="M251.98,50.22c-0.02,0-0.06,0.04-0.09,0.09c-0.06,0.05-0.12,0.09-0.23,0.12c-0.11,0.03-0.15,0.1-0.15,0.21 c0,0.05,0.01,0.1,0.03,0.16c0.11-0.08,0.21-0.12,0.34-0.14c0.11-0.02,0.23,0.04,0.34,0.18c-0.17,0.02-0.41,0.12-0.72,0.27 c-0.2-0.05-0.4-0.05-0.6-0.02l-0.2,0.03c-0.08-0.04-0.12-0.18-0.12-0.46l0.06-0.7c0-0.05-0.06-0.08-0.18-0.06 c-0.11-0.02-0.23-0.03-0.34-0.1c-0.12-0.04-0.18-0.29-0.18-0.71v-0.11c-0.02-0.3-0.03-1.23-0.06-2.77c0-1.54-0.02-2.47-0.03-2.79 c-0.06-0.02-0.09-0.06-0.11-0.12l0.06-0.38c-0.01-0.53-0.09-0.8-0.24-0.8L249,42.37v-0.06c0-0.6,0.47-1.18,1.42-1.76 c0.31-0.18,0.49-0.31,0.53-0.38c-0.93,0.47-1.6,0.98-1.97,1.54c-0.4,0.56-0.63,0.84-0.7,0.87c-0.15,0.02-0.23-0.15-0.23-0.52 c0-0.14,0-0.21,0.01-0.23c1.02-1.55,2.56-2.48,4.63-2.78c1.45-0.21,2.49-0.09,3.15,0.34c0.66,0.45,1.1,0.86,1.33,1.27 c0.23,0.39,0.35,0.94,0.35,1.63c-0.02,1.96-0.78,3.44-2.31,4.47l2.34,2.6c0.09-0.06,0.14-0.07,0.14-0.02l-0.02,0.12 c0,0.02,0.21,0.32,0.64,0.9c-0.38,0.24-0.61,0.36-0.69,0.37l-0.15,0.02c-0.02,0-0.08,0.04-0.17,0.12 c-0.11,0.06-0.17,0.12-0.2,0.12c-0.03,0.03-0.08,0.09-0.12,0.17c-0.05,0.1-0.09,0.17-0.12,0.2l-0.14,0.04 c-0.18,0.01-0.32-0.06-0.43-0.2c-0.09-0.17-0.17-0.25-0.23-0.26c0.27,0.43,0.41,0.69,0.41,0.75c0,0.09-0.08,0.16-0.24,0.25 c-0.17,0.09-0.26,0.13-0.31,0.12l-0.08,0.01c-0.03-0.07-0.06-0.17-0.11-0.31c-0.05-0.13-0.09-0.28-0.18-0.4 c-0.06-0.13-0.18-0.37-0.34-0.7c-0.17-0.33-1.63-1.86-2.44-2.37c-0.06,0.9-0.09,1.34-0.09,1.36l0.03,0.44 c0,0.02-0.02,0.09-0.05,0.24l-0.46,0.34L251.98,50.22z M251.66,41.93c0.02,0.18,0.05,0.3,0.09,0.34l-0.05-0.36l-0.02,0v0.01 L251.66,41.93z M251.8,45.51l0.02,0.01l0.02-0.77l-0.03-1.46c0-0.08,0-0.15-0.02-0.23c-0.02,0-0.02,0.17-0.02,0.54 C251.77,43.94,251.78,44.58,251.8,45.51z M251.84,46.51c0,0.17,0,0.32,0.02,0.47l0.05-0.01 C251.89,46.87,251.86,46.72,251.84,46.51z M251.9,48.06c0.03-0.05,0.05-0.1,0.05-0.14c0-0.05-0.02-0.1-0.06-0.16L251.9,48.06z M254.91,42.17v-0.01c-0.35-0.48-0.66-0.71-0.92-0.69c-0.29-0.06-0.55-0.07-0.78-0.04c-0.23,0.03-0.43,0.08-0.56,0.11 c-0.05,0.08-0.09,0.13-0.15,0.14c-0.05,0.01-0.09,0.01-0.12,0v0.18c0,1.41,0.05,2.62,0.14,3.63c0.17-0.01,0.27-0.01,0.35-0.02 l0.11-0.02c0.17,0.02,0.24-0.02,0.26-0.13l-0.02-0.15c0-0.21,0.17-0.44,0.5-0.67c0.32-0.24,0.52-0.38,0.57-0.43 c0.43-0.44,0.64-1.01,0.66-1.71c0-0.14,0-0.2-0.02-0.2L254.91,42.17z M252.56,39.61c0.05,0.01,0.09,0,0.14,0l0.31-0.03l0.26-0.02 l0.05-0.01c1.01-0.07,1.94,0.24,2.78,0.93c0.23,0.18,0.4,0.4,0.52,0.64c-0.18-0.39-0.49-0.72-0.92-1.01 c-0.75-0.53-1.74-0.71-2.96-0.53C252.68,39.58,252.64,39.59,252.56,39.61z M255.93,50.75l-0.21-0.46l-2.19-2.41l2.19,2.47l0.02,0 L255.93,50.75z M254.68,46.1l0.02,0.01c0.81-0.38,1.4-1.1,1.79-2.15C256.16,44.82,255.55,45.53,254.68,46.1z M256.84,42.14 c0-0.26-0.05-0.51-0.12-0.75C256.79,41.61,256.82,41.87,256.84,42.14z"/>
    </g>
    <path d="M190.13,80.4l4.24-0.62c4.95,0.21,7.42,1.97,7.42,5.29v2.12l-3.53,5.46l0.35-0.05l3.53-3.69v0.71 c-1.21,2.86-2.74,4.85-4.6,5.97l-2.12,1.01v1.41c0.51-0.07,2.99,2.63,7.42,8.11c0.94,0.25,1.89,1.06,2.83,2.42v0.35l-1.77-1.16 v0.35c1.18,1.08,1.77,1.93,1.77,2.57l-0.35,0.05l-1.77,1.32l-0.35,0.05l-0.71-0.96l-0.35,0.41l-0.35,0.05 c-4.71-3.17-8.01-6.58-9.9-10.23l-1.77-3.28c-0.83,0.12-1.3,1.6-1.41,4.45c0.15,2.33,0.04,3.79-0.35,4.36 c-0.69,0.67-0.81,1.26-0.35,1.76v0.71l-1.06,0.15c-0.47,0.07-0.71-0.37-0.71-1.31l-0.35,0.05c0,0.94-0.44,1.36-1.33,1.25 l-1.56-1.85l0.42-3.28v-1.41l2.12-10.2l0.35-0.05v1.41l0.35-0.05l1.77-7.68c-0.47,0.07-0.71,0.57-0.71,1.52l-0.35,0.05v-0.71 l-2.12,0.31v-0.35c0-0.47,0.71-0.93,2.12-1.37v-0.35l-0.71,0.1l-2.12,1.01l-0.35,0.05c0-0.47,0.47-0.78,1.41-0.91v-0.35 c-0.94,0.14-1.41-0.15-1.41-0.86L190.13,80.4z M185.19,95.97v1.41l0.35-0.05v-1.41L185.19,95.97z M185.89,91.27l0.35-0.05v1.41 l-0.35,0.05V91.27z M186.6,87.99l0.35-0.05V89l-0.35,1.47l-0.35,0.05v-1.06L186.6,87.99z M190.49,93.08l0.35-0.05 c3.7-2.31,6.29-4.57,7.78-6.78v-0.71c0-0.8-1.41-1.42-4.24-1.86l-2.12,1.01L190.49,93.08z M195.79,105.03v0.35l1.41,1.21 C196.75,105.59,196.27,105.07,195.79,105.03z M198.62,87.66l-1.77,2.73l0.35-0.05l1.77-2.38v-0.35L198.62,87.66z M197.56,83.22 c0.47,1,0.94,1.52,1.41,1.56v-0.71L197.56,83.22z M197.56,107.25v0.35l1.41,0.85v-0.35L197.56,107.25z M199.68,85.03l-0.35,1.82 l0.35-0.05l0.35-0.4v-1.41L199.68,85.03z M202.15,87.85l0.71-0.1l-0.35,1.11l-0.35,0.05V87.85z"/>
    <path d="M213.04,83.05c1.87-0.27,3.61,0.03,5.24,0.91l-0.24,0.27v0.24l0.95,1.29l-0.48,0.07l-0.24-0.2l-0.24,0.03l0.71,5.14 l0.24-0.03c0-0.79,0.16-1.21,0.48-1.26v0.95c0,0.9-0.79,3.08-2.38,6.54l0.24-0.03c-1.12,1.7-2.79,3.37-5,5.01l-1.19,0.41 l-0.24,0.03c-3.77,0.55-6.16-0.62-7.15-3.49l-0.95-1.29l0.24-0.27l-0.24-1.63v-0.48c0-1.32,1.27-3.8,3.81-7.46v0.24 c-1.17,1.74-2.12,3.62-2.86,5.65v0.24l0.24-0.03c0.58-2.41,2.72-5.66,6.43-9.75l-1.67,1.19l-0.24,0.03 C208.52,84.65,210.03,83.87,213.04,83.05z M203.52,95.15v1.91l0.24-0.03v-1.91L203.52,95.15z M206.61,91.37l-0.71,1.53l0.24-0.03 l0.71-1.53L206.61,91.37z M211.85,87.27l-0.24-0.2v0.24l0.24,0.2l-1.67,1.67c-1.32,0.19-2.59,2.6-3.81,7.22 c0,1.27,0.71,2.28,2.14,3.02l0.24-0.03c1.74-0.25,3.72-2.37,5.95-6.34c0.79-1.85,1.19-3.18,1.19-3.98v-1.91 c0-0.44-0.79-0.64-2.38-0.61l-0.24,0.03l-0.24,0.27l-0.24,0.03v-0.24L211.85,87.27z M207.09,100.59v0.24l1.19,0.54v-0.24 L207.09,100.59z M214.71,94.24l-0.95,1.33l0.24-0.03l0.95-1.33L214.71,94.24z M215.9,91.45l-0.95,2.52l0.71-0.1l0.71-1.77 l-0.24-0.68L215.9,91.45z M217.57,92.16l-0.24,0.75v0.48l0.24-0.03l0.24-0.99v-0.24L217.57,92.16z M218.76,86.98l0.48-0.07v1.19 l-0.48,0.07V86.98z"/>
    <path d="M233.98,75.51l0.24-0.03v0.48l0.24-0.27l0.24-0.03c1.11,0.21,1.67,0.45,1.67,0.71l-1.19,1.6l0.48-0.07 c0.63-0.42,0.95-0.86,0.95-1.33l0.71-0.1v0.24l-0.24,0.27l0.24,0.2v0.24c-5.64,6.89-10.65,14.39-10.52,17.97l-2.87,20.31l0.24,0.2 v0.24l-1.19,2.32l-1.91,0.04v-1.91l-0.71-0.83v-0.48l2.63-20.77l0.24,0.2l0.24-0.03l-0.24-0.2v-0.24l0.24-0.27v-0.24l-0.24-0.2 l0.71-0.34l-0.24,1.23v0.95l0.24-0.03l0.28-2.91l-0.24-0.68l-0.24,0.03v0.71l-0.24,0.03l-0.24-1.87l0.24-0.27v-0.24l-3.28-7.89 v-0.48l0.48-0.07l-0.48-1.12l0.24-0.27l0.48-0.07c0.36-0.05,0.6,0.31,0.71,1.09l0.71-0.58l0.71-0.1c0,0.98,0.85,2.93,2.56,5.85 c0.91-1.87,1.71-3.02,2.38-3.44v0.24c-1.59,2.25-2.38,3.55-2.38,3.92v0.24l0.24-0.03l7.85-10.66V76.5l-4.99,5.49v-0.24 L233.98,75.51z M221.79,116.96v0.95l0.24-0.03v-0.95L221.79,116.96z M231.97,81.31c-3.42,4.88-5.13,7.66-5.13,8.34l0.48-0.07 c1.37-2.84,3-5.61,4.89-8.3L231.97,81.31z M228.75,81.98v0.24l-0.48,0.55v-0.24L228.75,81.98z"/>
    <path d="M238.17,83.45c0.42,0.26,1.76,0.22,4.01-0.11l-0.01,0.24l-1.67,0.24l-0.01,0.24c1.99-0.29,3.23,0.01,3.73,0.89l-0.03,0.48 l-1.19,0.17l-0.01,0.24l1.65,0l-0.01,0.24l-1.43,0.21l-0.01,0.24c0.48-0.07,0.71,0.06,0.69,0.38c-2.83,0.41-5.36,1.81-7.58,4.2 l-0.01,0.24c3.07,0.38,5.51,1.85,7.3,4.42L243.55,96c-0.58,2.14-2.2,4.28-4.86,6.42l-1.46,0.45l-0.01,0.24l0.48-0.07 c-0.02,0.43-1.48,1.12-4.37,2.06l0.03-0.48l1.19-0.17l0.03-0.24c-1.02,0.15-1.94-0.28-2.76-1.27c-0.71-0.26-1.06-0.91-1.06-1.93 c0-0.09,0-0.19,0.01-0.3l0.74-0.58l0.69,0.38l0.48-0.07c4.48-1.35,6.8-3.12,6.94-5.29c-1.88-0.68-3.12-0.98-3.73-0.89l-0.01,0.24 l-2.34-0.61l0.22,0.21l-0.01,0.48c-1.98-1.17-2.95-2.14-2.9-2.91l1.86-3.6l1.25-1.13l-0.03,0.48L238.17,83.45z M234.83,103.7 l-0.01,0.24l0.95-0.14l1.21-0.41v-0.24l-0.24,0.03L234.83,103.7z M234.92,90.35l-0.01,0.24l4.2-3.23l1.93-0.76l0.03-0.48 l-0.48,0.07C238.08,87.49,236.19,88.87,234.92,90.35z M236.24,99.92l0.24-0.03l0.5-0.55l-0.24,0.03L236.24,99.92z M237.54,101.64 v0.24l0.24-0.03l0.99-0.86L237.54,101.64z M240.52,99.3l-1.02,1.34l0.24-0.03l1.02-1.34L240.52,99.3z"/>
    <path d="M255.03,78.45c0.1,0.46,0.74,0.61,1.91,0.44l1.91,8.06l1.67-0.24v0.24l-1.43,0.44v0.24c0.48-0.07,0.71,0.06,0.71,0.37 l1.91-0.28v0.24c0,0.36-0.79,0.79-2.38,1.3l0.48,1.36l-0.24,0.75l0.24,1.39l-0.24,0.27l0.24-0.03l-0.24,0.27l0.24,2.82l0.35,3.62 l-0.24-0.2l-0.24,0.03l0.71,5.57l-0.48,0.07c0-0.48-0.16-0.69-0.48-0.65v0.24l0.24,0.68l-0.24,0.03l-0.24-0.2l-0.24,0.03 c0,0.48-0.16,0.74-0.48,0.78l-1.53-8.17l-0.24,0.03v0.95l-0.24,0.03l-0.48-2.79l0.71,0.37v-0.24c-0.13-1.41-0.37-2.09-0.71-2.04 l0.24-0.27v-0.71l-0.48,0.07v0.71l-0.24,0.03v-0.95l0.24-0.27l-0.24,0.03l-0.24,0.27v-0.95l0.24-0.03l0.24,0.2l0.24-0.03l-0.24-0.2 v-1.43l-5.24,1.95v0.48l1.67-0.72l0.95,0.1l1.19-0.41v0.48c-3.33,1.08-5,2.12-5,3.11c-0.42,1.81-0.9,2.99-1.43,3.54v0.48l-0.71,0.1 l-0.24-0.2l-0.24,0.03v0.24l-0.71-0.37l0.48-1.5l-0.24,0.03c-0.48,0.07-0.71,0.74-0.71,2.01l-0.48-0.41l0.24-1.46l-0.71-0.61 l4.05-10.35l0.24-0.03c0,0.48,0.16,0.69,0.48,0.65l0.24-1.23l-0.24,0.27l-0.24,0.03v-0.95l0.24-1.23l0.24,0.2l0.24-0.03l-0.24-0.2 v-0.24l0.48-1.02l0.24-0.03l0.24,0.2l0.24-0.03v-0.24c0-0.32-0.24-0.44-0.71-0.37l1.19-3.51l0.95-0.14l-0.24,0.27v0.24 C253.04,79.06,254.07,78.59,255.03,78.45z M248.12,89.7l-0.24,0.99l0.24-0.03l0.48-1.02L248.12,89.7z M248.84,88.4l-0.24,0.27v0.48 l0.24-0.03l0.24-0.75L248.84,88.4z M250.27,89.15l-0.24,0.99l0.24-0.03l0.24-0.27v-0.71L250.27,89.15z M251.46,85.88l-0.48,1.74 l-0.24-0.2l-0.24,0.03l0.24,0.92l0.24-0.03l0.71-2.25v-0.24L251.46,85.88z M253.6,84.14l-1.91,5.28l0.48-0.07 c1.59-0.23,2.46-0.83,2.62-1.81l-0.95-3.44L253.6,84.14z M252.17,89.82v0.24l0.48-0.07c1.43-0.37,2.14-0.71,2.14-1.03L254.55,89 L252.17,89.82z M255.51,94.58l0.48-0.07v1.43l-0.24,0.03L255.51,94.58z M256.46,96.82v0.48l0.71-0.34v-0.48L256.46,96.82z M258.84,95.76v0.48l0.24,0.92l0.24-0.03v-0.48l-0.24-0.92L258.84,95.76z"/>
    <path d="M267.49,75.8l1.88,1.34c0-0.54,0.18-0.83,0.54-0.88l0.27-0.04l3.76,9.13v0.54l-0.27,0.04l-0.54-1.53l-0.27,0.04v0.54 l1.88,4.3l0.27-0.04c0.72-4.76,1.75-9.78,3.1-15.04l0.81,0.42l0.81-0.39l1.61,0.57v0.27c-0.54,0.08-0.81,0.48-0.81,1.19l0.27-0.04 l0.27,0.23l0.27-0.04l0.27-1.38l0.54-0.08v0.27l-0.27,0.31l0.27,0.23v0.27c-1.35,4.34-2.56,10.45-3.64,18.35l-0.54,0.08l0.54-4.38 c-0.36,0.05-0.9,1.83-1.61,5.34c-0.66,0.63-1.29,0.99-1.88,1.08v0.54l-0.27,0.04c0-0.36-0.36-0.49-1.08-0.38V94.8 c0-0.81-1.79-5.03-5.38-12.66l-0.27,0.04c-0.72,3.3-1.34,7.69-1.88,13.17l-0.27-0.23c-1.08,0.47-1.61,1-1.61,1.58l-0.54,0.08 c-0.36-0.62-0.54-1.76-0.54-3.42l-0.27,0.04v2.42l-0.54,0.08l-0.27-1.3c0-4.87,1.08-10.94,3.23-18.21L267.49,75.8z M263.72,83.07 v0.27l0.27,0.23l-0.27,0.31v0.54l0.27-0.04l0.27-1.11l-0.27-0.23L263.72,83.07z M273.94,85.89c0.46-0.07,0.82,0.6,1.08,1.99v0.27 l-0.27,0.04L273.94,85.89z"/>
    <path d="M256.41,107.12c-1.18,0.46-0.91,0.61-2.69,1.79l-1.02,0.16l-1.89,1.92c-2.27,0.9-5.03,2.93-7.85,3.9 c-0.7,0.24-1.41,0.56-2.26,0.82c-4.36,1.3-8.55,2.23-13.37,2.25c-1.27,0.01-2.4,0.09-3.48,0.08c-0.44-0.02-0.9-0.08-1.33-0.14 l-0.35-0.41l-3.8-0.11l-6.02-1.34l-1.54-0.37l2.01,0.67c0.17,0.09,0.32,0.17,0.32,0.17c0.92,0.32,1.8,0.58,2.67,0.82l0.24,0.08 l0.01-0.01c0.23,0.06,0.46,0.13,0.68,0.19c0.1,0,0.17-0.02,0.29,0.03c0.09,0.05,0.18,0.08,0.27,0.11l0.51,0.12 c0.06,0.01,0.12,0.02,0.18,0.03l0.01,0c0.03,0,0.03,0,0.04-0.01l0.12,0.03l-0.16-0.03l-0.09-0.01c0.19,0.05,0.39,0.09,0.58,0.13 l2.77,0.8l4.49,0.18c0.14,0.01,0.29,0.01,0.43,0.02l1.35,0.05l-0.24-0.05c2.44,0.02,4.88-0.16,7.46-0.58 c2.21-0.34,4.32-0.83,6.34-1.44c2.03-0.59,3.9-1.4,5.71-2.31c1.82-0.89,3.58-1.92,5.44-3c1.45-0.81,2.97-2.15,4.09-3.28 C257.74,106.75,256.5,107.09,256.41,107.12z"/>
    <path d="M270.6,70.32l-0.03-1.06c-0.13-0.57-0.24-1.12-0.37-1.64c-0.02-0.02-0.04-0.04-0.06-0.06l-0.01-0.06 c0.01-0.04,0.02-0.09,0.02-0.13l-0.05-0.23c-0.01-0.02-0.02-0.05-0.03-0.08l0,0c-0.02-0.03-0.03-0.02-0.04-0.01L270.01,67 c0-0.02,0.01-0.04,0-0.07c0.02,0.04,0.03,0.08,0.05,0.12l0.02,0.03l-0.12-0.53c-0.02-0.04-0.03-0.07-0.04-0.11 c-0.06-0.12-0.11-0.24-0.07-0.33l-0.02-0.09l-0.01,0.02l0-0.04l-0.1-0.4c-0.06-0.26-0.13-0.52-0.21-0.79 c-0.46-1.72-1.09-3.24-1.82-4.93c-0.38-0.93-0.77-1.81-1.16-2.67c-0.78-1.74-1.86-3.08-2.71-4.84c-0.34-0.67-1.24-1.71-1.72-2.24 c-0.79-0.58-0.94,0.21-0.94,0.26c-0.04,0.79,0.5,0.92,0.95,2.04c-0.35-0.73,0.65,0.24,0.78,1.07c0.19,1.18,1.38,2.2,1.95,3.41 c0.14,0.3,0.33,0.6,0.51,0.94c0.82,1.87,1.84,3.48,2.57,5.51c0.21,0.53,0.5,0.96,0.72,1.39c0.14,0.33,0.2,0.7,0.27,0.98 c0.13,0.43,0.29,0.79,0.46,1.12c-0.11-0.28-0.2-0.53-0.3-0.8l0.45,0.97c-0.02,0.02-0.05,0.03-0.03,0.05 c0.06,0.15,0.15,0.26,0.23,0.36l0.11,0.24c0.01,0.13,0.02,0.26,0.03,0.38c0.01,0.07,0.02,0.15,0.05,0.22l0.07,0.14 c0.07,0.15,0.14,0.32,0.21,0.48L270.6,70.32z M269.51,65.01l-0.06-0.24C269.49,64.86,269.51,64.93,269.51,65.01z"/>
    <path d="M238.4,34.43l-3.03-0.5l-0.11-0.02l0.01,0l-1.15-0.22c-0.08-0.01-0.16-0.02-0.23-0.03l-0.71-0.13c-0.01,0-0.02,0-0.03-0.01 l-0.21-0.03l-1.9-0.75l-2.21,0.33c-3.29-0.19-6.45,0.03-9.89,0.61c-2.13,0.39-4.17,0.84-6.12,1.46c-1.95,0.61-3.76,1.37-5.51,2.26 c-1.76,0.87-3.47,1.85-5.27,2.9c-1.41,0.78-3.67,2.73-4.76,3.81c-1.33,1.59-0.12,1.29-0.03,1.25c1.26-0.47,1.75-1.38,3.91-2.69 c-1.02,0.65-0.22-0.15,0.88-0.88l1.66-0.31l1.82-1.24l2.31-0.74l0.65-1.12c0.85-0.45,1.71-0.87,2.59-1.17 c0.68-0.22,1.36-0.55,2.18-0.8c2.11-0.66,4.17-1.18,6.28-1.61c2.11-0.43,4.29-0.7,6.62-0.73c1.23-0.05,2.32-0.14,3.36-0.16 c0.76,0.02,1.57,0.15,2.18,0.23c0.11,0.01,0.21,0.02,0.32,0.03l4.72,0.8l2.93,0.41l1.28,0.33l1.82,0.45L238.4,34.43z"/>
    <path d="M218.94,61.47c-0.88,0.88-1.74,1.86-2.39,2.29c-0.39,0.31-0.68,0.55-0.93,0.73c0.2-0.15,0.53-0.41,0.93-0.73 c0.36-0.28,0.78-0.63,1.21-1.11c-0.59,0.54-1.25,0.91-1.7,1.2c-0.3,0.25-0.59,0.53-0.94,0.73c-1.42,1.05-3.01,1.69-4.66,1.82 c-0.15,0.01-0.34,0.03-0.56,0.04c-0.22,0.01-0.45-0.02-0.69-0.03c-0.24-0.02-0.47-0.04-0.69-0.06c-0.2-0.05-0.39-0.09-0.54-0.13 c2.4,0.54,4.89-0.2,6.95-1.67c-0.06,0.03-0.12,0.06-0.18,0.1l-0.84,0.53l-0.89,0.4c-0.58,0.31-1.22,0.39-1.83,0.56 c-0.21,0.06-0.43,0.05-0.65,0.07c0.22-0.02,0.44-0.02,0.65-0.07c0.27-0.08,0.54-0.16,0.81-0.24c0.14-0.04,0.27-0.08,0.41-0.13 c0.13-0.07,0.27-0.13,0.41-0.2c0.35-0.17,0.77-0.29,1.11-0.48c0.27-0.17,0.54-0.29,0.81-0.44l0.5-0.32l0.15-0.11l-0.01,0 c-0.13,0.02-0.5,0.2-0.98,0.45c-0.24,0.11-0.5,0.3-0.8,0.4c-0.3,0.11-0.61,0.23-0.93,0.35c-0.31,0.15-0.64,0.18-0.95,0.26 c-0.31,0.05-0.6,0.17-0.88,0.16c-0.55,0.04-0.96,0.07-1.16,0.08c-0.6,0-1.18,0.19-1.88,0.06c-0.23-0.04-0.42-0.1-0.6-0.11 c-0.02,0.02-0.11,0.02-0.21,0.02c-0.46-0.11-0.9-0.33-1.27-0.37c-0.26-0.05-0.82-0.72-0.9-0.66c-0.28,0.24-0.08,0.06-0.65-0.17 c-0.07-0.03-0.33,0.01-0.47-0.05c-0.47-0.24-0.63-0.19-1.21-0.34c-0.87-0.14-1.01-0.41-1.83-0.34c-0.05,0.01-0.37-0.05-0.7-0.02 c-0.32,0.02-0.63,0.03-0.63,0.03c-0.96-0.04-1.52,0.2-2.28,0.12c-0.81,0.35-1.96,0.5-2.78,0.99c-0.82,0.47-1.2,0.57-1.96,0.96 c-0.2,0.14-0.33,0.27-0.46,0.33c-0.14,0.05-0.33,0.38-0.51,0.54l-0.01-0.11c-0.06,0.05-0.19,0.16-0.26,0.21 c-0.06,0.05-0.07,0.02-0.07-0.02c0-0.07-0.01-0.14-0.14-0.07c-0.27,0.22-0.55,0.45-0.8,0.73c-0.21,0.31-0.4,0.64-0.58,0.97 c0.02,0.04,0.03,0.09,0.02,0.15l-0.14,0.31c0.03,0.11,0.11,0.14,0.13,0.21c0.17,0.14,0.13,0.65,0.35,0.68 c0.06,0,0.38-0.47,0.61-0.59c0.06-0.02,0.04,0.14,0.06,0.24c0.19-0.26,0.26-0.22,0.24-0.06c0.05-0.06,0.1-0.11,0.1-0.11 c0.01,0.03,0.03,0.13,0.03,0.13c0.55-0.58,1.27-1.06,1.77-1.64c0.11-0.11,0.28-0.34,0.4-0.49c0.06-0.08,0.24-0.15,0.3-0.18 c0.06-0.14,0-0.21,0-0.31c0.49-0.29,1.59-0.71,1.45-0.96c0.4-0.2,0.45-0.34,0.87-0.54c0.57-0.25,1.33-0.47,2.09-0.6 c0.42-0.07,0.82-0.09,1.23-0.12c0.15,0.01,0.3,0.01,0.44,0.02c3.05,0.17,5.11,1.88,8.32,2.19c1.6,0.17,3.27,0.01,4.78-0.54 c0.72-0.36,1.48-0.61,2.11-1.08c0.33-0.21,0.65-0.41,0.96-0.61c0.29-0.24,0.57-0.47,0.85-0.7c0.28-0.23,0.55-0.45,0.81-0.66 c0.24-0.24,0.47-0.47,0.7-0.69c0.44-0.45,0.88-0.84,1.22-1.23c0.68-0.8,1.2-1.4,1.46-1.7l0.22-0.46 C220.5,59.61,219.74,60.51,218.94,61.47z M215.61,64.49c-0.05,0.04-0.12,0.09-0.17,0.12C215.31,64.67,215.4,64.63,215.61,64.49z"/>
    <path d="M211.65,71.43c-0.79,0.39-1.66,0.63-2.19,0.69c-0.41,0.07-0.72,0.1-0.96,0.1c-0.2-0.01,0.26,0,0.96-0.1 c0.31-0.06,0.67-0.14,1.1-0.28c-0.55,0.09-1.08,0.11-1.45,0.09c-0.26,0.05-0.53,0.08-0.81,0.1c-0.6,0.04-1.2,0.02-1.77-0.11 c-0.58-0.11-1.08-0.45-1.63-0.75c-0.38-0.24-1.31-0.61-1.75-0.73c0.92,0.19,1.74,0.66,2.54,1.07c0.76,0.37,1.64,0.47,2.5,0.4 c-0.05,0-0.09-0.01-0.14-0.01c-0.91,0.01-1.79-0.12-2.58-0.61c0.39,0.21,0.71,0.29,1.13,0.39c0.26,0.05,0.55,0.13,0.82,0.14 c0.17,0.02,0.41,0.06,0.63,0.08c0.14,0.01,0.27-0.02,0.41-0.02c0.04-0.01,0.08-0.02,0.12-0.03l-0.01,0c-0.18-0.09-1.14-0.09-2-0.39 c-0.43-0.14-0.77-0.37-1.18-0.6c-0.37-0.22-0.69-0.38-0.84-0.43c-0.47-0.17-0.98-0.15-1.52-0.22c-0.18-0.02-0.33-0.1-0.47-0.07 c-0.02,0.03-0.09,0.04-0.16,0.06c-0.35-0.02-0.7-0.15-0.97-0.07c-0.19,0.03-0.7-0.45-0.74-0.37c-0.15,0.32-0.04,0.09-0.48,0.05 c-0.05-0.01-0.23,0.12-0.33,0.11c-0.36-0.08-0.47,0.03-0.88,0.06c-0.6,0.09-0.77-0.08-1.33,0.16c-0.08,0-0.92,0.34-0.92,0.34 c-0.33,0.09-0.59,0.23-0.83,0.32c-0.24,0.12-0.45,0.22-0.74,0.24c-0.47,0.48-1.27,0.76-1.76,1.27c-0.49,0.49-0.78,0.58-1.28,0.94 c-0.13,0.12-0.21,0.22-0.3,0.28c-0.09,0.05-0.17,0.33-0.29,0.45l-0.03-0.09c-0.04,0.04-0.12,0.13-0.17,0.17 c-0.04,0.04-0.05,0.01-0.06-0.02c-0.02-0.06-0.04-0.12-0.14-0.07c-0.18,0.17-0.37,0.36-0.53,0.56c-0.12,0.24-0.22,0.49-0.32,0.75 c0.02,0.04,0.04,0.07,0.05,0.12l-0.07,0.23c0.04,0.09,0.12,0.13,0.15,0.18c0.18,0.13,0.21,0.53,0.42,0.58 c0.06,0.01,0.28-0.33,0.46-0.42c0.05-0.02,0.05,0.11,0.1,0.2c0.12-0.2,0.2-0.15,0.21-0.03c0.03-0.04,0.07-0.08,0.07-0.08 c0.01,0.03,0.06,0.11,0.06,0.11c0.39-0.43,0.9-0.82,1.18-1.31c0.06-0.1,0.15-0.3,0.21-0.43c0.03-0.06,0.16-0.14,0.2-0.17 c0.01-0.13-0.06-0.18-0.08-0.28c0.33-0.25,1.05-0.71,0.87-0.94c0.25-0.21,0.23-0.35,0.5-0.58c0.35-0.29,0.82-0.62,1.31-0.86 c0.26-0.17,0.54-0.23,0.81-0.34c0.1-0.04,0.2-0.07,0.3-0.09c0.52-0.15,1.01-0.18,1.5-0.18c0.51,0.02,1,0.04,1.49,0.05 c0.97,0.05,1.94,0.03,2.98,0.09c0.53,0.04,1.04,0.19,1.56,0.41c0.52,0.21,1.02,0.5,1.6,0.67c1.13,0.32,2.25,0.23,3.23,0.08 c1.97-0.32,3.46-1.17,3.95-1.78l0.18-0.44C213.16,70.52,212.45,71.06,211.65,71.43z"/>
    <path d="M266.99,68.09c-0.08,0.22-0.15,0.55-0.22,0.96c-0.03,0.2-0.12,0.42-0.19,0.65l-0.11,0.34l-0.18,0.34l-0.19,0.33 c-0.07,0.1-0.17,0.19-0.26,0.28l-0.26,0.26c-0.1,0.06-0.21,0.12-0.31,0.17c-0.1,0.05-0.2,0.1-0.29,0.15 c-0.1,0.02-0.2,0.05-0.29,0.07c-0.19,0.04-0.35,0.09-0.5,0.08c-0.21,0-0.41,0.01-0.58,0.01c-0.16-0.02-0.3-0.05-0.43-0.07 c-0.2-0.06,0.26,0.08,1.01,0.05c0.33-0.05,0.75-0.1,1.17-0.38c-0.15,0.06-0.29,0.12-0.43,0.16c-0.14,0.01-0.28,0.03-0.42,0.04 c-0.26,0.04-0.49-0.03-0.68-0.05c-0.27,0.04-0.56-0.02-0.84-0.04c-1.24-0.16-2.41-0.56-3.58-1.01c-0.42-0.17-1.36-0.5-1.77-0.7 c1.74,0.61,3.47,1.31,5.25,1.58c-0.04-0.01-0.09-0.03-0.14-0.04c-0.93-0.16-1.84-0.48-2.75-0.8c0.41,0.14,0.81,0.22,1.26,0.34 c0.26,0.08,0.6,0.18,0.86,0.26c0.22,0.05,0.42,0.13,0.64,0.2c0.14,0.04,0.28,0.04,0.42,0.06c0.05,0,0.09,0,0.13,0l-0.01,0 c-0.17-0.1-1.1-0.35-2.05-0.72c-0.95-0.36-1.93-0.78-2.22-0.86c-0.46-0.12-0.94-0.09-1.45-0.25c-0.17-0.05-0.3-0.15-0.45-0.15 c-0.02,0.02-0.09,0.02-0.17,0.02c-0.34-0.1-0.67-0.31-0.95-0.31c-0.16-0.04-0.68-0.59-0.74-0.52c-0.21,0.29-0.05,0.06-0.56-0.02 c-0.06-0.01-0.26,0.12-0.38,0.1c-0.41-0.08-0.53,0.01-0.97,0.12c-0.65,0.18-0.83,0.04-1.36,0.39c-0.08,0.02-0.89,0.46-0.89,0.46 c-0.67,0.23-1,0.57-1.58,0.62c-0.48,0.47-1.31,0.7-1.87,1.12c-0.55,0.41-0.86,0.45-1.42,0.69c-0.15,0.09-0.24,0.18-0.35,0.21 c-0.1,0.03-0.23,0.28-0.38,0.37l-0.01-0.1c-0.05,0.03-0.15,0.09-0.19,0.12c-0.05,0.03-0.05,0-0.06-0.03 c-0.01-0.06-0.02-0.13-0.12-0.1c-0.21,0.12-0.43,0.24-0.64,0.39c-0.17,0.2-0.33,0.4-0.47,0.61c0.01,0.04,0.03,0.08,0.02,0.13 l-0.12,0.2c0.02,0.1,0.09,0.16,0.1,0.22c0.15,0.18,0.08,0.57,0.28,0.69c0.06,0.03,0.37-0.23,0.57-0.27c0.05,0,0.03,0.13,0.05,0.22 c0.17-0.16,0.24-0.09,0.22,0.03c0.05-0.03,0.09-0.06,0.09-0.06c0.01,0.03,0.03,0.13,0.03,0.13c0.51-0.31,1.12-0.57,1.51-1 c0.09-0.09,0.21-0.27,0.3-0.39c0.04-0.06,0.19-0.1,0.24-0.13c0.03-0.12-0.03-0.19-0.04-0.29c0.38-0.19,1.21-0.56,1.04-0.81 c0.29-0.18,0.28-0.33,0.58-0.53c0.39-0.28,0.9-0.57,1.42-0.84c0.28-0.15,0.56-0.28,0.84-0.4c0.11-0.04,0.21-0.08,0.31-0.12 c1.06-0.41,2.05-0.58,2.98-0.5c0.24-0.01,0.46,0.04,0.69,0.09c0.23,0.05,0.45,0.07,0.7,0.16c0.5,0.14,1.01,0.28,1.58,0.41 c1.13,0.26,2.27,0.62,3.39,0.94c1.12,0.31,2.22,0.6,3.31,0.55c0.54-0.01,1.08-0.19,1.54-0.48c0.22-0.16,0.4-0.36,0.58-0.54 c0.14-0.2,0.26-0.42,0.37-0.61c0.2-0.4,0.27-0.77,0.38-1.08c0.04-0.31,0.08-0.55,0.1-0.71L266.99,68.09z"/>
    <path d="M264.99,62.32c-0.01-0.68-0.12-1.15-0.15-1.41l-0.16-0.26c-0.04,0.37,0.11,1.07,0.14,1.86c0.04,0.78-0.08,1.67-0.44,2.07 c0.07-0.13,0.15-0.28,0.23-0.43c0.04-0.18,0.09-0.36,0.14-0.57c-0.17,0.5-0.44,0.92-0.71,1.03c-0.14,0.18-0.33,0.25-0.52,0.34 c-0.88,0.24-1.78-0.01-2.62-0.37c-0.31-0.13-0.98-0.42-1.26-0.62c0.61,0.31,1.24,0.57,1.87,0.76c0.63,0.19,1.3,0.3,1.9,0.13 c-0.03,0-0.07,0-0.1,0c-0.64,0.12-1.32-0.06-1.98-0.28c0.29,0.07,0.59,0.14,0.91,0.16c0.2,0.05,0.42,0.09,0.61,0.09 c0.16,0.02,0.3,0.02,0.46,0.03c0.1-0.01,0.19-0.04,0.27-0.09c0.03-0.02,0.05-0.04,0.07-0.05l0,0c-0.13,0-0.76,0.04-1.44-0.18 c-0.67-0.2-1.36-0.54-1.56-0.6c-0.33-0.1-0.67-0.04-1.04-0.2c-0.12-0.05-0.21-0.14-0.31-0.15c-0.02,0.02-0.07,0.02-0.12,0.01 c-0.24-0.11-0.44-0.33-0.65-0.35c-0.14-0.04-0.31-0.66-0.37-0.6c-0.23,0.23-0.04,0.06-0.37-0.13c-0.04-0.03-0.22,0.03-0.29-0.02 c-0.25-0.2-0.36-0.17-0.7-0.22c-0.5-0.05-0.58-0.29-1.05-0.13c-0.04,0-0.22,0.02-0.39,0.04c-0.18,0.04-0.34,0.08-0.34,0.08 c-0.54-0.02-0.82,0.24-1.26,0.11c-0.41,0.33-1.07,0.35-1.5,0.67c-0.44,0.29-0.67,0.3-1.11,0.47c-0.12,0.07-0.19,0.14-0.27,0.16 c-0.09,0.01-0.17,0.24-0.28,0.32l-0.02-0.09c-0.04,0.03-0.11,0.08-0.15,0.1c-0.04,0.03-0.04,0-0.05-0.04 c-0.01-0.06-0.03-0.12-0.11-0.1c-0.17,0.1-0.33,0.22-0.49,0.34c-0.11,0.19-0.23,0.37-0.32,0.57c0.02,0.04,0.03,0.08,0.03,0.12 l-0.07,0.18c0.03,0.09,0.1,0.14,0.12,0.2c0.15,0.17,0.16,0.52,0.34,0.62c0.05,0.03,0.26-0.2,0.42-0.22c0.04,0,0.04,0.11,0.08,0.2 c0.11-0.13,0.17-0.07,0.18,0.04c0.03-0.03,0.06-0.05,0.06-0.05c0.01,0.03,0.04,0.11,0.04,0.11c0.35-0.25,0.8-0.42,1.05-0.77 c0.06-0.07,0.14-0.21,0.19-0.31c0.03-0.05,0.13-0.07,0.17-0.09c0.02-0.11-0.03-0.18-0.05-0.27c0.29-0.12,0.88-0.31,0.75-0.58 c0.21-0.12,0.21-0.26,0.43-0.38c0.29-0.17,0.68-0.33,1.08-0.43c0.21-0.06,0.42-0.12,0.64-0.11c0.08,0,0.16-0.01,0.23-0.01 c0.8-0.01,1.49,0.19,2.1,0.57c0.63,0.34,1.33,0.79,2.16,1.03c0.84,0.26,1.68,0.56,2.54,0.73c0.43,0.07,0.86,0.13,1.3,0.07 c0.44-0.04,0.88-0.26,1.21-0.64c0.14-0.2,0.27-0.43,0.35-0.65c0.06-0.23,0.13-0.45,0.16-0.67 C264.98,63.05,265.02,62.65,264.99,62.32z M264.16,64.8c-0.16,0.15-0.31,0.25-0.44,0.28C263.58,65.1,263.82,65.09,264.16,64.8z"/>
    <path d="M246.59,56.53c0.14-0.03,0.27-0.05,0.37-0.07c0.13,0,0.23,0,0.29-0.01l0.09-0.02l0-0.08c0.02,0,0.05,0,0.07-0.01l2.13-0.27 l-2.11-0.23c-0.02,0-0.04,0-0.07,0l0-0.09c-0.13,0.02-0.23,0.04-0.31,0.07c-0.39-0.05-0.48-0.06-0.95-0.08l0.04,0.01 c-1.92-0.14-3.31-0.06-4.14,0.03c-0.15-0.03-0.3-0.06-0.41-0.05c-0.07,0,0.1-0.05,0.2-0.07c-0.84,0.02-0.09,0.13-0.69,0.25 c-0.12-0.04,0.12-0.18-0.3-0.12c-0.22-0.01-1.14,0.45-1.71,0.51c0.13,0.01,0.27,0.02,0,0.13c-0.21,0.06-0.5,0.13-0.78,0.2 c-0.14,0.04-0.28,0.08-0.41,0.13c-0.12,0.06-0.23,0.12-0.3,0.2c-0.06,0.01-0.08,0.01-0.09,0c-0.14,0.09-0.39,0.21-0.61,0.35 c-0.21,0.15-0.41,0.29-0.47,0.37c-0.1-0.02-0.27,0.03-0.45,0.14c-1.09,0.88-1.69,2.1-2.36,2.77c-0.67,0.67-2.14,3.97-2.14,3.97 l0.04-0.79l0.16-1.71l-0.76,1.74c-0.02,0.04-0.03,0.07-0.05,0.11c0-0.01-0.01-0.04,0.01-0.11c-0.2,0.48-0.55,0.98-0.89,1.36 c-0.16,0.2-0.33,0.35-0.44,0.5c-0.13,0.13-0.21,0.25-0.23,0.38l-0.06,0.04c-0.26,0.18-1.29,0.86-1.94,0.71 c-0.02,0-0.03-0.02-0.05-0.02c-0.63-0.11-1.73-0.45-1.5-1.49c0.2-0.91,0.94-1.22,1.33-1.32c0.51-0.06,1.03-0.12,1.52-0.27 c0.85-0.26,1.44-0.81,1.6-1.77c-0.56,0.92-1.44,0.96-2.35,0.9c-0.6-0.04-1.2-0.07-1.8-0.16c-2.94-0.43-4.38,1.58-4.85,3.5 c-0.08,0.33-0.18,0.64-0.3,0.94c-0.48,0.56-1.51,1.95-1.3,3.52c-0.13,0.3-0.25,0.62-0.33,0.95c0.03,0.03,0.12-0.16,0.11,0.1 c-0.11,0.19-0.19,0.39-0.27,0.6c-0.02,0.19,0.09,0.23,0.06,0.46c0.12,0,0.22-0.02,0.22-0.02l0.33-0.36c0,0,1.49-4.04,3.54-4.85 c0,0,0.33-0.06,0.3,0.09c-0.01,0.03-0.15,0.11-0.37,0.26c-0.62,0.49-1.9,1.69-2.73,3.81c-0.61,1.56-0.56,2.61-0.39,3.25 c0.19,0.48,0.39,0.79,0.39,0.79l-0.33,0.06l-0.27-0.39l-0.21,0.12c0.16,0.31,0.36,0.6,0.59,0.86c0.43,0.46,0.96,0.81,1.51,1.07 c0.56,0.25,1.14,0.44,1.73,0.59c-0.32-0.11-0.1-0.08,0.15-0.05c-0.16-0.04,0.01-0.08-0.01-0.12c0.32,0.08,0.65,0.14,0.98,0.18 c0.18-0.1,1.03-0.04,1.15-0.17l-0.01,0l-0.29,0.04c0.12-0.05,0.11-0.09,0.05-0.13l-0.04-0.01l-0.85-0.2l-0.71-0.67l0.89,0.46 l-0.04-0.32c0.52,0.52,1.45,0.55,1.45,0.55c-0.06-0.16-0.09-0.31-0.14-0.46c-0.9-0.38-2.35-1.17-3.01-2.45 c-1.13-1.01-1.95-3,2.81-6.03c0,0-2.25,2.21-2.44,4.43l1.17-1.36c0,0-0.81,2.6,1.17,3.72c-0.06-1.67,0.6-2.99,1.41-3.98 c0.59-1.12,2.68-2.16,2.71-2.17c0,0,0,0,0,0c0,0,0,0,0,0c0.04-0.02,0.06-0.03,0.06-0.03c-0.01,0.02-0.03,0.03-0.04,0.05l-0.01-0.02 l0,0l0.01,0.02c-0.04,0.05-0.08,0.09-0.12,0.14l-1.18,1.77c-0.16,0.34-0.28,0.67-0.37,0.99c0,0,0-0.01,0-0.01l-0.04,0 c-0.05,0.17-0.05,0.31-0.02,0.26c-0.04,0.17-0.07,0.34-0.09,0.5l-0.02,0.23c-0.01,0.15-0.03,0.3-0.03,0.45l0.16,1.37l-0.06,0.11 l0.11,0.12l-0.04-0.19c0.15,0.58,0.36,1.07,0.56,1.45l0.37,0.6l0.19,0.21c0.01-0.01,0.02,0,0.02,0.02l0.14,0.15 c0.01-0.03,0.03-0.05,0.04-0.07c0.17-0.24-0.06,0.17,0.04,0.07l0.21-0.45c0.03,0.03,0.16-0.13,0.25-0.21 c0.08-0.08,0.11-0.08-0.1,0.3l0.41-0.63c0.21-0.2,0.45-0.5,0.56-0.72c0.15-0.17,0.32-0.48,0.23-0.3c0.16-0.19,0.31-0.4,0.48-0.58 l0.02,0.01c0.55-0.48,1.12-1.07,1.96-1.32c0.22-0.13,0.45-0.25,0.85-0.39l0.1,0.04c0.15-0.07,0.39-0.13,0.6-0.19 c0.22-0.05,0.41-0.11,0.47-0.16c0.39,0.07,1.57-0.38,2.18-0.54l-0.01-0.09c0.2-0.05,0.4-0.13,0.6-0.22 c0.1-0.04,0.21-0.09,0.32-0.14c0.11-0.06,0.22-0.12,0.34-0.18l-0.06-0.06c0.39-0.22,1.09-0.53,1.62-1.06 c0,0.02-0.02,0.04-0.04,0.07c0.26-0.21,0.46-0.47,0.64-0.74c1.83-1.27,3.79-3.5,3.39-5.62c-0.05-0.26-0.12-0.52-0.16-0.78 c-0.34-2.19,0.54-3.34,2.75-3.59c0.03,0,0.06-0.05,0.15-0.13c-0.41-0.04-0.76-0.08-1.11-0.1c-3.09-0.17-4.03,0.69-4.08,3.77 c-0.01,0.68-0.11,1.33-0.32,1.91l-0.32-1.95c0.02,0.01,0.05,0.06,0.09,0.16c-0.2-0.73-0.1-0.6-0.26-1.23l0.07,0.03 c0-0.11-0.03-0.25-0.05-0.38l0.04-0.63c0.04-0.31,0.08-0.76,0.23-1.24c0.02-0.06,0.04-0.11,0.05-0.17c-0.13-1.23,1.4-2.3,1.4-2.3 l1.37-0.43l-0.04-0.2l0.55-0.28l0.16,0.05l0.19-0.03c0.11-0.02,0.19-0.05,0.27-0.08l0.36-0.07c-0.04,0.02-0.09,0.04-0.18,0.06 C245.91,56.66,246.26,56.59,246.59,56.53z M230.55,76.18c0,0,0-0.01,0-0.01C230.74,75.97,230.68,76.04,230.55,76.18z M232.36,73.38 c-0.15,0.2-0.45,0.5-0.82,0.85c-0.44,0.42-0.26,0.1-0.33,0.18c-0.23,0.17-0.36,0.34-0.45,0.47c-0.09,0.13-0.15,0.24-0.2,0.34 c-0.11,0.19-0.19,0.37-0.51,0.72c-0.3,0.25-0.17-0.1-0.27-0.07l-0.35-0.42l1.01-1.28l0.36-0.15c0,0,1.74-1.61,2.53-1.87l-1.07,1.31 C232.29,73.43,232.32,73.4,232.36,73.38z M230.19,72.59c-0.25,0.74,0.21-1.86,2.02-3.18c1.82-1.32,1.78-1.24,1.9-2.15 c0.12-0.91,1.32-2.93,1.32-2.93s0.41,2.39-0.17,3.18l-0.08,0.7l1.07-1.03c0,0-0.08,1.65-1.73,2.44 C232.87,70.41,230.44,71.85,230.19,72.59z M241.1,68.68c-0.02,0.09-0.05,0.18-0.09,0.26c-0.04,0.08-0.08,0.17-0.13,0.25l-0.09,0.05 c-0.1,0.19-0.22,0.37-0.38,0.5c-0.63,0.55-1.41,0.92-2.04,1.16c0.01,0.07,0,0.13-0.04,0.18c-0.03,0.01-0.26,0.05-0.52,0.11 c-0.25,0.04-0.52,0.07-0.63,0.07l-2.04,0.6c-0.04,0.02-0.07,0.04-0.11,0.05c0-0.01,0-0.01,0-0.02l-0.51,0.15l0.44-0.18 c-0.01,0-0.02,0-0.03-0.01c0.06-0.02,0.11-0.03,0.17-0.05l3.31-1.67c0,0,1.87-1.15,1.91-2.34c0.04-1.19-0.13-3.41-0.13-3.41 s-0.67-3.53,0.59-5.19c0,0-0.59,1.51-0.32,2.66c0.28,1.15,0.44,3.21,0.44,3.21s0.44,1.96,0.13,3.44c0.04-0.07,0.08-0.14,0.12-0.21 C241.16,68.4,241.14,68.54,241.1,68.68z"/>
    <path d="M186.71,63l2.31-6.22l-0.54-0.5l-1.53,3.8l-0.02,0.19c-0.64,1.82-1.91,5.52-2.03,6.53l0.06,0.31 c-0.07,0.34-0.14,0.68-0.22,1.04c-0.14,0.6-0.28,1.22-0.45,1.92c-0.31,1.25-0.2,2.42-0.59,3.7c-0.14,0.49-0.08,1.42-0.05,1.9 c0.25,0.64,0.86,0.29,0.9,0.26c0.53-0.4,0.21-0.69,0.54-1.47c-0.18,0.53-0.34-0.4,0.04-0.89c0.56-0.69,0.2-1.71,0.41-2.57 l-0.26-0.56l0.56-1.26c0-0.02,0.01-0.04,0.01-0.06l0.06-3.88l0.61-0.77l0.1-0.82c-0.03,0.18-0.05,0.34-0.08,0.51 C186.6,63.77,186.66,63.39,186.71,63z"/>
  </g>
</svg>